<svg width="17" height="17" viewBox="0 0 17 17" fill="none" xmlns="http://www.w3.org/2000/svg">
<path d="M16.7381 12.4299C16.5548 12.1266 16.3322 11.8233 16.0835 11.5018C15.4916 10.8168 15.0813 10.0127 14.8855 9.15409L14.6106 5.57496C14.447 2.80264 12.6992 0 9.22323 0H7.77001C4.29407 0 2.53319 2.80265 2.35644 5.56889L2.08151 9.15409C1.88664 10.0203 1.47647 10.8325 0.883587 11.526C0.661023 11.8415 0.438458 12.1327 0.287899 12.4056C0.126315 12.6066 0.028454 12.8454 0.00532491 13.0951C-0.0178042 13.3448 0.0347166 13.5956 0.156979 13.8191C0.299624 14.0539 0.509768 14.2474 0.764023 14.378C1.01828 14.5087 1.30667 14.5714 1.5971 14.5592H6.65064C6.54298 14.8341 6.50838 15.129 6.54978 15.4189C6.59118 15.7088 6.70736 15.9852 6.88847 16.2246C7.06958 16.4641 7.31029 16.6596 7.59022 16.7946C7.87016 16.9295 8.18106 17 8.49662 17C8.81217 17 9.12308 16.9295 9.40301 16.7946C9.68294 16.6596 9.92366 16.4641 10.1048 16.2246C10.2859 15.9852 10.4021 15.7088 10.4435 15.4189C10.4848 15.129 10.4503 14.8341 10.3426 14.5592H15.3961C15.6892 14.5691 15.9795 14.5027 16.234 14.3676C16.4885 14.2325 16.6971 14.0341 16.8363 13.7948C16.9586 13.5814 17.0142 13.3406 16.9969 13.0994C16.9795 12.8583 16.8899 12.6264 16.7381 12.4299ZM9.15122 15.1658C9.15122 15.2858 9.11283 15.4031 9.0409 15.5029C8.96897 15.6026 8.86673 15.6804 8.74712 15.7263C8.62751 15.7722 8.49589 15.7842 8.36891 15.7608C8.24193 15.7374 8.12529 15.6796 8.03374 15.5948C7.94219 15.5099 7.87985 15.4019 7.85459 15.2842C7.82933 15.1665 7.8423 15.0445 7.89184 14.9337C7.94139 14.8228 8.02529 14.7281 8.13294 14.6614C8.24059 14.5948 8.36715 14.5592 8.49662 14.5592C8.67023 14.5592 8.83673 14.6231 8.95949 14.7369C9.08225 14.8506 9.15122 15.0049 9.15122 15.1658ZM15.6972 13.2428C15.6972 13.2913 15.586 13.3459 15.4223 13.3459H1.5971C1.43345 13.3459 1.34836 13.2913 1.32217 13.2428C1.29599 13.1943 1.32217 13.1275 1.38763 13.0305C1.56437 12.7514 1.7673 12.4602 1.97677 12.1691C2.63138 11.2955 3.28598 10.3006 3.38417 9.23902L3.66565 5.65382C3.80312 3.6034 4.96176 1.21327 7.77001 1.21327H9.22323C12.0315 1.21327 13.1901 3.6034 13.3276 5.65989L13.6091 9.23902C13.6876 10.3128 14.388 11.2955 15.0426 12.1691C15.2521 12.4602 15.455 12.7757 15.6645 13.0851C15.6854 13.1059 15.6995 13.1317 15.7053 13.1596C15.711 13.1875 15.7083 13.2163 15.6972 13.2428Z" fill="white"/>
</svg>
